<svg width="428" height="926" viewBox="0 0 428 926" fill="none" xmlns="http://www.w3.org/2000/svg">
<g clip-path="url(#clip0_2_3)">
<rect width="428" height="926" fill="#5B8C16"/>


<path d="M321.546 183.394C307.594 181.857 293.517 184.844 281.392 191.915C269.266 198.986 259.734 209.766 254.202 222.666C248.669 235.566 247.429 249.903 250.664 263.562C253.899 277.22 261.438 289.478 272.169 298.526C272.313 298.851 272.533 299.137 272.809 299.361C273.086 299.584 273.412 299.739 273.76 299.811L273.836 299.872L262.175 333.685C262.067 334.101 262.094 334.54 262.253 334.94C262.411 335.339 262.694 335.677 263.059 335.904C263.423 336.131 263.851 336.236 264.28 336.203C264.708 336.17 265.115 336 265.44 335.719L295.33 311.102C304.044 313.753 313.216 314.557 322.259 313.461C331.302 312.365 340.017 309.394 347.846 304.738C355.675 300.082 362.447 293.843 367.727 286.421C373.008 278.999 376.681 270.556 378.513 261.633C380.345 252.711 380.294 243.504 378.365 234.601C376.435 225.699 372.669 217.297 367.308 209.933C361.946 202.569 355.106 196.406 347.227 191.836C339.347 187.266 330.6 184.391 321.546 183.394V183.394Z" fill="white" stroke="#1D1D1B" stroke-width="0.5" stroke-miterlimit="10"/>
<path d="M348.722 219.316H318.778C316.784 219.316 315.167 220.933 315.167 222.927V268.693C315.167 270.687 316.784 272.303 318.778 272.303H348.722C350.716 272.303 352.332 270.687 352.332 268.693V222.927C352.332 220.933 350.716 219.316 348.722 219.316Z" fill="#E57930"/>
<path opacity="0.59" d="M347.8 225.203H319.7V230.355H347.8V225.203Z" fill="white"/>
<path opacity="0.38" d="M347.8 233.299H319.7V238.45H347.8V233.299Z" fill="white"/>
<path opacity="0.19" d="M347.8 240.995H319.7V246.147H347.8V240.995Z" fill="white"/>
<path d="M348.848 246.535H300.153C299.562 246.535 299.083 247.014 299.083 247.605V281.532C299.083 282.123 299.562 282.602 300.153 282.602H348.848C349.439 282.602 349.918 282.123 349.918 281.532V247.605C349.918 247.014 349.439 246.535 348.848 246.535Z" fill="#6EA652"/>
<path d="M350.002 254.841H299V256.09H350.002V254.841Z" fill="#5D8E3D"/>
<path d="M353.727 246.535H295.271C294.921 246.535 294.637 246.819 294.637 247.17V253.748C294.637 254.098 294.921 254.382 295.271 254.382H353.727C354.078 254.382 354.362 254.098 354.362 253.748V247.17C354.362 246.819 354.078 246.535 353.727 246.535Z" fill="#6EA652"/>
<path d="M346.142 259.025H302.858V273.205H346.142V259.025Z" fill="#5D8E3D"/>
<path d="M302.987 281.284C300.67 279.625 298.868 277.348 297.786 274.712C296.704 272.076 296.387 269.189 296.872 266.381C297.356 263.573 298.621 260.959 300.523 258.838C302.425 256.716 304.886 255.174 307.625 254.387C310.497 253.613 313.539 253.743 316.335 254.76C319.131 255.777 321.545 257.631 323.249 260.07C324.952 262.51 325.862 265.415 325.855 268.39C325.847 271.365 324.922 274.266 323.206 276.696C321.977 278.436 320.372 279.877 318.51 280.914C316.648 281.95 314.578 282.555 312.451 282.683" fill="#D34C4C"/>
<path d="M297.823 248.604C304.503 265.4 307.318 280.025 299.523 283.079C291.293 286.297 283.713 273.529 277.034 256.733C270.356 239.936 267.104 225.469 275.333 222.257C283.133 219.21 291.147 231.806 297.823 248.604Z" fill="#C37134"/>
<path d="M291.02 242.819C290.615 244.27 289.897 245.615 288.917 246.759C287.937 247.903 286.719 248.819 285.347 249.441C284.032 249.85 282.639 249.938 281.284 249.697C279.928 249.455 278.651 248.893 277.558 248.056C282.367 247.582 286.953 245.788 290.806 242.871" fill="#F59052"/>
<path d="M286.318 233.132C285.973 234.368 285.361 235.514 284.526 236.488C283.691 237.463 282.654 238.243 281.485 238.774C280.365 239.121 279.178 239.195 278.023 238.99C276.868 238.784 275.779 238.305 274.848 237.592C278.946 237.188 282.853 235.658 286.136 233.172" fill="#F59052"/>
<path d="M287.471 282.096C285.633 281.229 284.061 279.886 282.917 278.206C281.774 276.527 281.101 274.572 280.968 272.544C280.874 270.516 281.195 268.49 281.911 266.591C282.628 264.691 283.725 262.958 285.135 261.498C286.331 260.162 287.807 259.106 289.457 258.404C293.908 256.631 299.197 258.626 302.45 262.137C304.184 263.936 305.411 266.161 306.006 268.588C306.601 271.015 306.542 273.556 305.835 275.953C304.214 280.666 299.036 284.101 294.161 283.075C292.682 282.76 291.029 282.116 289.762 282.944" fill="#EFB93F"/>
<path d="M349.858 280.96H284.074V283.768H349.858V280.96Z" fill="#38303B"/>
<path d="M349.031 283.76L365.502 237.64L362.77 236.664L346.298 282.784L349.031 283.76Z" fill="#38303B"/>
<path d="M286.883 282.782L270.411 236.662L267.678 237.638L284.15 283.758L286.883 282.782Z" fill="#38303B"/>
<path d="M367.107 238.843H266.425C265.574 238.843 264.757 238.505 264.156 237.903C263.554 237.301 263.215 236.485 263.215 235.633V235.633C263.215 234.782 263.554 233.966 264.156 233.364C264.757 232.762 265.574 232.424 266.425 232.424H367.107C367.958 232.424 368.773 232.762 369.375 233.364C369.977 233.966 370.315 234.782 370.315 235.633C370.315 236.484 369.977 237.301 369.375 237.902C368.773 238.504 367.958 238.843 367.107 238.843Z" fill="#38303B"/>
<path d="M314.275 204.98L314.361 205.073C314.539 205.266 314.678 205.493 314.77 205.74C314.861 205.987 314.902 206.25 314.892 206.513C314.882 206.776 314.82 207.035 314.709 207.274C314.599 207.514 314.443 207.729 314.249 207.908L284.855 235.084C284.661 235.262 284.434 235.401 284.187 235.493C283.94 235.584 283.677 235.625 283.414 235.615C283.151 235.605 282.892 235.543 282.653 235.432C282.414 235.322 282.198 235.166 282.02 234.972L281.934 234.88C281.755 234.687 281.617 234.46 281.525 234.213C281.434 233.966 281.393 233.703 281.403 233.44C281.414 233.177 281.476 232.918 281.586 232.679C281.697 232.44 281.853 232.225 282.047 232.046L311.442 204.869C311.833 204.508 312.351 204.317 312.882 204.338C313.413 204.359 313.914 204.59 314.275 204.98V204.98Z" fill="#38303B"/>
<path d="M352.183 235.592L352.271 235.505C353.055 234.721 353.055 233.451 352.271 232.667L323.965 204.361C323.182 203.578 321.911 203.578 321.128 204.361L321.04 204.449C320.257 205.233 320.257 206.503 321.04 207.286L349.346 235.592C350.13 236.376 351.4 236.376 352.183 235.592Z" fill="#38303B"/>
<path d="M293.614 236.113L302.492 282.6" stroke="#38303B" stroke-miterlimit="10"/>
<path d="M343.005 236.113L334.127 282.6" stroke="#38303B" stroke-miterlimit="10"/>
<path d="M318.704 236.034L320.041 281.227" stroke="#38303B" stroke-miterlimit="10"/>
<path d="M355.875 260.368L277.79 260.101" stroke="#38303B" stroke-miterlimit="10"/>
<path d="M108.667 406.1C109.882 407.675 111.43 408.962 113.2 409.87C114.839 410.957 116.783 411.492 118.747 411.396C120.787 410.805 122.521 409.452 123.592 407.619L141.633 383.696C131.207 386.241 120.45 388.931 112.124 395.258C110.562 396.318 109.273 397.732 108.364 399.387C107.569 401.06 107.046 404.137 108.256 405.622L108.667 406.1Z" fill="#6EA652"/>
<path d="M105.893 434.746C104.402 425.651 106.205 416.323 110.977 408.437C115.968 400.406 123.517 394.289 132.407 391.071" stroke="#83BA63" stroke-miterlimit="10"/>
<path d="M111.823 457.48H86.3204L78.2389 431.409H119.097L111.823 457.48Z" fill="#EDC2AF"/>
<path d="M121.883 430.038H75.4534V434.278H121.883V430.038Z" fill="#D2AB94"/>
<path d="M64.9917 462.862C62.9776 448.939 60.9965 434.47 65.064 421.015C65.4354 419.429 66.1907 417.959 67.2635 416.733C68.9426 415.303 71.1106 414.579 73.3121 414.714C76.2575 414.717 79.1655 415.374 81.8265 416.637C84.4875 417.899 86.8353 419.737 88.7006 422.016C90.157 423.665 91.0871 425.712 91.3714 427.893C91.4009 429.382 91.1202 430.861 90.5471 432.236C89.9739 433.61 89.1209 434.851 88.0423 435.878C85.8849 437.897 83.5656 439.736 81.1077 441.376C73.8077 446.911 68.1669 454.343 64.8001 462.862" fill="#83BA63"/>
<path d="M65.7867 458.919C66.2122 448.743 68.7058 438.761 73.1157 429.581C75.1754 425.304 77.9184 420.981 82.2373 419.113C84.0346 418.359 85.9939 418.073 87.9318 418.282C89.8697 418.491 91.7229 419.188 93.318 420.308C94.9006 421.474 96.1681 423.016 97.0063 424.794C97.8445 426.572 98.2269 428.531 98.1191 430.494" stroke="#6EA652" stroke-miterlimit="10"/>
<path d="M97.3021 402.095C96.0433 404.628 94.2209 406.839 91.9747 408.558C89.8192 410.227 87.4186 411.979 84.7007 411.876C81.6685 411.763 79.2318 409.404 77.114 407.193C66.8895 396.524 56.6656 385.855 46.4422 375.188C61.4238 376.963 76.9082 378.903 89.9134 386.689C92.3599 387.993 94.4753 389.84 96.0971 392.089C97.5991 394.416 99.0664 398.879 97.7609 401.308L97.3021 402.095Z" fill="#6EA652"/>
<path d="M101.577 430.492C101.445 419.747 97.7786 409.344 91.1436 400.892C84.496 392.514 75.2502 386.586 64.8629 384.042" stroke="#83BA63" stroke-miterlimit="10"/>
<path d="M118.167 427.18C115.911 426.267 113.443 428.651 113.454 430.973C113.465 433.295 115.055 435.318 116.565 437.156L126.786 449.587C128.674 445.884 129.266 441.656 128.467 437.578C127.669 433.499 125.527 429.806 122.383 427.089C120.983 425.898 118.161 425.278 117.757 427.01" fill="#6EA652"/>
<path d="M108.699 429.937C109.416 428.453 110.677 427.301 112.221 426.721C113.354 426.345 114.568 426.282 115.735 426.54C116.901 426.798 117.975 427.367 118.844 428.186C120.428 429.658 121.692 431.441 122.558 433.422C123.987 436.439 124.955 439.653 125.43 442.957" stroke="#83BA63" stroke-miterlimit="10"/>
<path d="M118.879 676.859L117.556 676.987L112.158 457.07L113.481 456.941L118.879 676.859Z" fill="#38303B"/>
<path d="M79.6968 676.859L81.0196 676.987L86.4178 457.07L85.1013 456.939L79.6968 676.859Z" fill="#38303B"/>
<path d="M117.14 456.584H80.1131C79.3609 456.584 78.751 457.194 78.751 457.946V459C78.751 459.753 79.3609 460.362 80.1131 460.362H117.14C117.892 460.362 118.502 459.753 118.502 459V457.946C118.502 457.194 117.892 456.584 117.14 456.584Z" fill="#38303B"/>
<path d="M333.282 640.874C333.2 635.756 333.118 630.637 333.035 625.519C333.151 623.062 332.794 620.606 331.984 618.284C331.545 617.112 330.795 616.081 329.815 615.303C328.835 614.524 327.662 614.027 326.421 613.865C325.218 613.962 324.01 613.967 322.807 613.879C319.838 613.231 320.322 608.399 319.683 605.511C317.924 597.563 311.125 591.653 303.697 587.887C301.203 586.423 298.282 585.859 295.422 586.288C292.626 586.916 290.173 589.543 290.674 592.289C291.039 594.277 292.742 595.764 293.587 597.61C295.507 601.802 292.85 607.335 295.74 610.964C298.712 614.702 305.939 614.081 307.617 618.505C307.939 620.034 308.128 621.587 308.182 623.148C308.592 624.58 309.321 625.901 310.315 627.01C311.309 628.119 312.542 628.988 313.921 629.552C316.614 630.881 319.596 631.567 322.339 632.794C326.669 634.733 330.275 637.99 332.642 642.101" fill="#6EA652"/>
<path d="M326.202 644.335C327.211 637.376 325.617 630.289 321.725 624.431C318.386 619.457 315.951 617.484 312.735 612.46C310.207 608.512 308.875 603.95 306.731 599.789C304.586 595.629 301.27 591.648 296.63 590.501" stroke="#83BA63" stroke-miterlimit="10"/>
<path d="M335.214 638.836C335.324 633.39 335.433 627.944 335.542 622.497C335.435 619.884 335.816 617.273 336.666 614.799C337.112 613.561 337.886 612.467 338.905 611.635C339.924 610.802 341.15 610.261 342.452 610.07C343.697 610.168 344.948 610.168 346.193 610.07C349.273 609.367 350.075 605.473 350.749 602.397C351.721 598.145 353.597 594.151 356.249 590.687C358.9 587.223 362.266 584.37 366.117 582.321C368.687 580.756 371.723 580.14 374.699 580.578C377.595 581.227 380.123 584.016 379.59 586.94C379.204 589.056 377.432 590.647 376.547 592.616C374.538 597.084 377.265 602.958 374.253 606.837C371.155 610.828 363.669 610.205 361.911 614.925C361.569 616.552 361.366 618.206 361.303 619.867C360.881 621.382 360.125 622.783 359.091 623.968C358.056 625.152 356.769 626.089 355.325 626.711C352.529 628.138 349.435 628.882 346.587 630.202C342.059 632.315 338.31 635.796 335.868 640.155" fill="#6EA652"/>
<path d="M336.724 639.393C335.938 633.119 339.577 627.12 343.869 622.474C348.161 617.828 353.287 613.864 356.643 608.504C359.283 604.29 360.684 599.43 362.928 594.993C365.171 590.556 368.624 586.303 373.438 585.061" stroke="#83BA63" stroke-miterlimit="10"/>
<path d="M333.544 634.18L322.715 617.937C320.827 615.45 319.419 612.633 318.564 609.63C318.158 608.122 318.174 606.532 318.611 605.032C319.048 603.533 319.888 602.182 321.04 601.128C322.332 600.391 323.565 599.555 324.727 598.625C327.283 595.877 325.415 591.522 323.982 588.055C322.038 583.255 321.16 578.09 321.41 572.917C321.66 567.744 323.031 562.687 325.429 558.097C326.903 554.838 329.478 552.203 332.702 550.656C336.001 549.357 340.4 550.403 341.867 553.627C342.933 555.962 342.27 558.705 342.741 561.226C343.811 566.953 350.51 570.893 350.189 576.709C349.858 582.693 342.053 587.078 343.541 592.891C344.034 594.815 345.501 596.33 346.315 598.144C347.837 601.541 346.871 606.092 345.088 609.362C343.305 612.631 340.182 613.886 338.274 617.085C335.264 622.133 335.533 628.067 336.113 633.917" fill="#83BA63"/>
<path d="M334.521 634.549C331.412 627.705 330.326 620.114 331.392 612.672C332.177 607.214 334.127 601.939 334.485 596.435C334.956 589.292 332.727 582.285 331.678 575.202C330.628 568.12 330.999 560.183 335.737 554.816" stroke="#6EA652" stroke-miterlimit="10"/>
<path d="M345.61 677.673H320.077L311.984 630.683H352.892L345.61 677.673Z" fill="#EDC2AF"/>
<path d="M355.682 628.205H309.196V635.848H355.682V628.205Z" fill="#D2AB94"/>
<path d="M43 678.071H396.388" stroke="#606060" stroke-miterlimit="10"/>
<path d="M262.776 648.192C262.252 651.425 261.728 654.659 261.204 657.893C261.072 658.517 261.031 659.157 261.082 659.793C261.396 662.263 264.224 663.604 265.324 665.848C265.455 666.08 265.52 666.343 265.514 666.61C265.439 667.453 264.329 667.709 263.472 667.739L255.957 668.017C255.015 668.052 253.893 668.005 253.365 667.232C253.156 666.863 253.035 666.451 253.011 666.028C252.203 659.918 251.394 653.809 250.586 647.7" fill="#F7B094"/>
<path d="M194.683 648.192C195.197 651.425 195.711 654.659 196.225 657.893C196.355 658.518 196.396 659.157 196.346 659.793C196.032 662.263 193.253 663.604 192.178 665.848C192.049 666.08 191.985 666.344 191.991 666.61C192.065 667.453 193.157 667.709 193.999 667.739L201.394 668.017C202.324 668.052 203.426 668.005 203.942 667.232C204.15 666.863 204.269 666.451 204.291 666.028C205.088 659.918 205.884 653.809 206.679 647.7" fill="#F7B094"/>
<path d="M169.532 677.761C175.667 677.995 180.686 678.181 186.826 678.415C188.698 678.647 190.599 678.389 192.342 677.665C193.261 677.184 194.177 676.408 195.192 676.619C195.977 676.776 196.527 677.486 197.248 677.84C197.903 678.102 198.607 678.22 199.311 678.184L205.752 678.322C206.46 678.421 207.18 678.256 207.774 677.86C208.044 677.54 208.24 677.166 208.348 676.762C208.457 676.358 208.475 675.936 208.403 675.524C208.252 672.213 207.658 668.936 206.635 665.783C206.403 665.067 206.059 664.269 205.344 664.044C205.003 663.995 204.656 664.014 204.323 664.101C203.989 664.188 203.677 664.34 203.404 664.55C200.973 665.923 197.782 666.892 195.539 665.23C195.017 664.729 194.437 664.292 193.811 663.929C193.041 663.692 192.22 663.681 191.445 663.896C184.638 665.157 178.029 667.316 171.791 670.316C170.317 670.884 169.031 671.852 168.077 673.111C167.624 673.755 167.428 674.546 167.527 675.327C167.625 676.109 168.012 676.825 168.611 677.337" fill="#38303B"/>
<path d="M181.879 665.98C182.433 666.417 182.892 666.963 183.228 667.584C183.563 668.206 183.767 668.89 183.828 669.593" stroke="#4C9374" stroke-miterlimit="10"/>
<path d="M187.415 664.192C188.663 665.453 189.569 667.01 190.048 668.718" stroke="#4C9374" stroke-miterlimit="10"/>
<path d="M287.911 677.953C281.784 678.187 276.756 678.372 270.617 678.606C268.744 678.838 266.844 678.579 265.101 677.857C264.183 677.376 263.267 676.6 262.252 676.811C261.467 676.968 260.915 677.678 260.194 678.03C259.54 678.292 258.836 678.41 258.132 678.375L251.69 678.514C250.982 678.612 250.263 678.448 249.668 678.052C249.399 677.732 249.203 677.357 249.094 676.954C248.985 676.55 248.967 676.127 249.04 675.716C249.189 672.404 249.783 669.128 250.806 665.975C251.038 665.259 251.382 664.46 252.097 664.236C252.438 664.186 252.786 664.205 253.119 664.292C253.453 664.379 253.766 664.532 254.039 664.742C256.468 666.113 259.659 667.084 261.902 665.422C262.424 664.92 263.004 664.483 263.63 664.121C264.4 663.883 265.222 663.872 265.998 664.088C272.804 665.349 279.412 667.508 285.65 670.507C287.124 671.075 288.41 672.042 289.364 673.301C289.817 673.946 290.013 674.736 289.914 675.518C289.816 676.3 289.429 677.017 288.83 677.529" fill="#38303B"/>
<path d="M275.561 666.171C275.006 666.608 274.547 667.155 274.212 667.776C273.876 668.398 273.672 669.081 273.611 669.785" stroke="#4C9374" stroke-miterlimit="10"/>
<path d="M270.028 664.383C268.783 665.644 267.88 667.2 267.401 668.905" stroke="#4C9374" stroke-miterlimit="10"/>
<path d="M218.003 502.398H220.605L238.539 577.38L248.069 648.998C248.1 649.236 248.216 649.455 248.394 649.616C248.572 649.777 248.801 649.869 249.041 649.876L264.111 650.297C264.287 650.302 264.461 650.27 264.624 650.203C264.786 650.137 264.934 650.038 265.056 649.912C265.179 649.786 265.274 649.637 265.336 649.472C265.398 649.308 265.425 649.133 265.416 648.957L261.866 574.36L248.748 476.439L243.957 453.773L189.599 452.788L185.365 483.977L188.127 578.338L192.777 649.524C192.799 649.881 192.959 650.215 193.223 650.455C193.487 650.696 193.834 650.824 194.191 650.813L206.81 650.379C207.158 650.366 207.488 650.222 207.734 649.975C207.98 649.728 208.123 649.397 208.134 649.048L210.629 577.911L218.003 502.398Z" fill="#38303B"/>
<path opacity="0.34" d="M185.729 483.129C189.554 479.282 192.162 474.394 193.229 469.076" stroke="#DEDFE0" stroke-width="0.709" stroke-miterlimit="10"/>
<path opacity="0.42" d="M223.131 459.283C223.131 459.156 223.081 459.034 222.991 458.944C222.901 458.855 222.779 458.804 222.652 458.804C222.525 458.804 222.403 458.855 222.313 458.944C222.224 459.034 222.173 459.156 222.173 459.283C222.289 463.176 222.31 467.071 222.236 470.967C222.2 472.81 222.223 474.689 222.036 476.524C221.879 478.078 221.076 480.103 219.227 479.968L218.841 457.285C218.83 456.614 217.798 456.678 217.809 457.345C217.97 466.848 218.132 476.351 218.294 485.853C218.305 486.524 219.339 486.459 219.326 485.792L219.245 480.921C220.021 480.91 220.772 480.647 221.386 480.172C222 479.697 222.443 479.035 222.649 478.287C222.907 477.439 223.044 476.56 223.054 475.674C223.108 474.574 223.135 473.487 223.163 472.394C223.276 468.025 223.265 463.655 223.131 459.283Z" fill="#B7B7B7"/>
<path opacity="0.34" d="M248.177 643.581C253.085 643.768 259.005 643.623 264.271 643.655" stroke="#DEDFE0" stroke-width="0.709" stroke-miterlimit="10"/>
<path opacity="0.34" d="M193.445 645.07C197.82 645.014 202.934 644.701 207.619 644.451" stroke="#DEDFE0" stroke-width="0.709" stroke-miterlimit="10"/>
<path d="M238.617 308.213C238.617 320.343 228.658 336.566 216.049 336.566C203.44 336.566 193.74 320.807 193.74 308.678C193.74 296.55 203.437 291.016 216.049 291.016C228.662 291.016 238.617 296.085 238.617 308.213Z" fill="#38303B"/>
<path d="M226.668 360.299C224.834 353.377 223.552 346.322 222.835 339.198C222.83 338.967 222.786 338.739 222.704 338.524C222.629 338.384 222.52 338.266 222.388 338.179C222.255 338.092 222.103 338.039 221.945 338.026C219.573 337.554 217.132 338.183 214.772 337.592C212.843 337.108 210.923 335.807 209.008 336.401C208.794 336.452 208.607 336.58 208.483 336.761C208.344 337.055 208.282 337.379 208.302 337.704C208.271 339.177 208.288 340.651 208.302 342.125C208.353 346.624 206.133 358.454 206.183 362.954" fill="#F7B094"/>
<path d="M208.216 335.432C208.34 335.251 208.528 335.122 208.742 335.072C210.656 334.478 212.577 335.779 214.506 336.263C216.863 336.855 219.306 336.217 221.68 336.697C221.838 336.71 221.99 336.763 222.122 336.85C222.255 336.937 222.363 337.055 222.439 337.195C222.52 337.41 222.564 337.638 222.569 337.869C222.756 340.225 223.293 342.371 223.48 344.736C221.537 346.444 219.132 347.537 216.568 347.878C214.825 347.92 213.105 347.476 211.601 346.594C210.097 345.713 208.869 344.43 208.054 342.89L208.03 340.792C208.015 339.319 207.997 337.845 208.03 336.371C208.013 336.048 208.076 335.725 208.216 335.432V335.432Z" fill="#E89C82"/>
<path d="M198.579 321.338C198.579 334.786 207.859 345.689 216.128 345.689C224.396 345.689 233.678 334.788 233.678 321.338C233.678 307.888 224.398 297.712 216.128 297.712C207.858 297.712 198.579 307.89 198.579 321.338Z" fill="#F7B094"/>
<path d="M199.539 326.579C198.446 326.277 197.465 325.663 196.717 324.812C195.969 323.96 195.486 322.908 195.328 321.786C195.286 321.228 195.357 320.668 195.537 320.139C195.717 319.61 196.002 319.123 196.375 318.707C196.749 318.291 197.202 317.956 197.709 317.72C198.216 317.484 198.765 317.354 199.324 317.336" fill="#F7B094"/>
<path d="M232.171 326.579C233.264 326.277 234.245 325.663 234.993 324.812C235.741 323.96 236.224 322.908 236.382 321.786C236.424 321.228 236.353 320.668 236.173 320.139C235.993 319.61 235.707 319.123 235.334 318.707C234.96 318.291 234.507 317.955 234 317.72C233.493 317.484 232.944 317.354 232.385 317.336" fill="#F7B094"/>
<path d="M224.079 318.529C224.079 319.883 224.677 320.981 225.416 320.981C226.154 320.981 226.754 319.881 226.754 318.529C226.754 317.176 226.156 316.076 225.416 316.076C224.676 316.076 224.079 317.182 224.079 318.529Z" fill="#38303B"/>
<path d="M206.701 318.658C206.701 320.012 207.3 321.11 208.038 321.11C208.777 321.11 209.377 320.01 209.377 318.658C209.377 317.305 208.778 316.205 208.038 316.205C207.298 316.205 206.701 317.303 206.701 318.658Z" fill="#38303B"/>
<path d="M222.388 316.527C223.4 316.235 224.453 316.105 225.505 316.142C226.51 316.117 227.512 316.269 228.464 316.592" stroke="#38303B" stroke-width="0.709" stroke-miterlimit="10"/>
<path d="M211.033 316.527C210.021 316.235 208.969 316.105 207.916 316.142C206.91 316.117 205.908 316.269 204.956 316.592" stroke="#38303B" stroke-width="0.709" stroke-miterlimit="10"/>
<path d="M202.708 313.929C202.693 313.954 202.685 313.983 202.686 314.013C202.687 314.043 202.696 314.071 202.712 314.096C202.729 314.121 202.752 314.14 202.779 314.152C202.806 314.164 202.835 314.169 202.865 314.164C203.058 314.073 203.113 313.86 203.65 313.596C205.731 312.677 208.079 312.566 210.238 313.281C210.616 313.459 211.004 313.616 211.399 313.753C211.572 313.786 211.755 313.663 211.754 313.564C211.74 313.442 211.684 313.328 211.597 313.242C211.179 312.825 210.657 312.528 210.085 312.38C208.135 311.778 206.034 311.903 204.169 312.732C203.576 312.972 203.069 313.384 202.714 313.916" fill="#38303B"/>
<path d="M230.256 313.929C230.271 313.954 230.279 313.983 230.278 314.013C230.277 314.043 230.268 314.071 230.252 314.096C230.235 314.121 230.212 314.14 230.185 314.152C230.158 314.164 230.128 314.169 230.099 314.164C229.906 314.073 229.851 313.86 229.314 313.596C227.233 312.677 224.885 312.566 222.726 313.281C222.348 313.459 221.96 313.616 221.565 313.753C221.392 313.786 221.208 313.663 221.21 313.564C221.223 313.442 221.279 313.328 221.367 313.242C221.785 312.825 222.307 312.528 222.879 312.38C224.828 311.778 226.93 311.903 228.795 312.732C229.388 312.972 229.894 313.385 230.25 313.916" fill="#38303B"/>
<path d="M217.114 317.272C217.614 321.266 218.114 325.259 218.615 329.253C218.641 329.314 218.65 329.381 218.639 329.446C218.629 329.511 218.6 329.572 218.556 329.622C218.512 329.671 218.455 329.707 218.391 329.726C218.328 329.744 218.26 329.743 218.197 329.724L215.683 329.65" stroke="#E89C82" stroke-miterlimit="10"/>
<path d="M231.354 295.12C225.227 288.935 206.786 289.078 205.441 289.258C204.44 289.35 203.432 289.311 202.441 289.142L192.719 287.893C192.544 287.847 192.362 287.837 192.183 287.864C192.005 287.891 191.834 287.954 191.68 288.05C191.17 288.457 191.181 289.367 191.316 290.072C191.533 291.376 192.008 292.624 192.713 293.743C193.417 294.862 194.337 295.829 195.42 296.589C192.972 297.392 190.31 297.227 187.981 296.129C187.79 297.273 187.862 298.446 188.192 299.559C188.522 300.672 189.102 301.694 189.886 302.55C191.329 303.981 193.201 304.9 195.215 305.165C199.609 305.852 204.098 304.809 207.74 302.257C207.332 302.814 207.145 303.502 207.215 304.188C207.285 304.874 207.607 305.51 208.118 305.973C208.623 306.296 209.193 306.503 209.787 306.578C210.382 306.654 210.985 306.596 211.554 306.408C214.235 305.831 216.771 304.716 219.009 303.131C218.8 303.903 218.879 304.726 219.23 305.445C219.581 306.164 220.18 306.732 220.918 307.043C221.624 307.2 222.356 307.21 223.066 307.07C223.776 306.931 224.449 306.645 225.043 306.232C227.185 305.012 229.071 303.39 230.596 301.453" fill="#38303B"/>
<path d="M210.711 334.216C213.036 337.308 215.507 338.252 218.723 337.433C220.327 336.721 221.682 335.545 222.613 334.057C220.76 335.004 218.708 335.496 216.627 335.49C214.547 335.485 212.497 334.983 210.649 334.026" fill="#E66E60"/>
<path d="M210.711 334.216C213.728 335.855 217.271 336.232 220.566 335.265C221.483 335.127 222.32 334.662 222.923 333.957C218.805 335.083 214.458 335.058 210.354 333.884L210.711 334.216Z" fill="white"/>
<path d="M230.757 298.289C227.929 293.21 215.686 287.617 214.761 287.291C214.076 287.029 213.418 286.699 212.797 286.308L206.605 282.683C206.397 282.529 206.145 282.447 205.886 282.448C205.466 282.501 205.294 282.974 205.245 283.379C205.157 284.207 205.238 285.043 205.483 285.839C205.728 286.634 206.131 287.371 206.668 288.006C204.848 287.648 203.169 286.772 201.834 285.483C201.483 286.073 201.297 286.746 201.295 287.432C201.293 288.119 201.476 288.793 201.825 289.384C202.553 290.622 203.59 291.651 204.833 292.369C207.481 294.04 210.576 294.859 213.704 294.718C212.894 294.922 212.731 296.052 213.218 296.752C213.781 297.415 214.553 297.867 215.407 298.034C217.221 298.552 219.11 298.754 220.993 298.633C220.717 299.045 220.614 299.549 220.705 300.037C220.797 300.524 221.075 300.956 221.482 301.241C222.327 301.832 223.342 302.13 224.373 302.089C225.949 302.132 227.519 301.873 228.998 301.327" fill="#38303B"/>
<path d="M164.872 385.866C161.123 393.745 157.792 401.816 154.892 410.045C153.712 412.952 152.958 416.014 152.654 419.136C152.569 422.121 153.581 426.52 156.141 427.487C159.934 428.916 168.264 429.799 170.349 425.54C176.572 412.832 179.007 406.826 184.541 395.624" fill="#F7B094"/>
<path d="M263.417 381.764C268.665 390.618 272.625 395.965 276.299 403.815C277.96 406.97 279.26 410.303 280.174 413.749C280.337 415.584 280.006 417.429 279.215 419.093C278.424 420.757 277.201 422.178 275.674 423.209C272.043 425.012 266.395 425.461 263.891 421.433C256.422 409.415 252.135 400.452 245.51 389.855" fill="#F7B094"/>
<path d="M231.32 356.624C231.155 356.541 230.99 356.467 230.827 356.402C226.002 354.06 220.738 352.762 215.377 352.593C210.017 352.425 204.682 353.389 199.72 355.424C199.671 355.442 199.622 355.455 199.573 355.475C192.957 358.155 187.285 362.737 183.274 368.641C179.263 374.546 177.093 381.507 177.04 388.645H251.359C251.318 381.974 249.422 375.446 245.883 369.791C242.344 364.136 237.302 359.577 231.32 356.624V356.624Z" fill="#F7B094"/>
<path d="M271.654 391.96C271.013 389.442 270.166 386.981 269.121 384.603C265.644 374.754 257.885 368.02 254.267 364.704C253.241 363.869 252.17 363.09 251.06 362.371C249.34 361.134 247.51 360.057 245.593 359.155C239.677 356.565 233.48 354.673 227.127 353.515L227.218 353.285C227.061 353.337 226.904 353.391 226.754 353.442C226.484 353.392 226.211 353.334 225.942 353.285C225.408 353.188 225.416 354.616 224.919 355.246C221.882 356.555 224.553 357.552 222.877 358.036C221.992 358.181 217.378 358.946 216.737 358.968C216.099 358.946 213.531 358.738 212.645 358.596C210.964 358.11 209.169 356.74 206.133 355.433C205.636 354.805 205.364 353.475 204.83 353.571C204.562 353.62 206.417 353.392 206.147 353.442C205.99 353.391 205.845 353.337 205.685 353.285L197.891 354.946C191.777 356.519 185.982 359.142 180.766 362.699C180.295 363.023 179.824 363.367 179.352 363.734C172.226 368.963 167.858 375.989 163.771 384.603C162.644 386.949 161.794 389.418 161.238 391.96C160.935 395.809 163.909 398.898 166.785 401.479C170.126 404.484 173.95 406.902 178.097 408.631L178.238 408.485C178.908 407.641 179.538 407.385 180.111 406.514C180.195 407.52 180.3 408.538 180.425 409.569C181.478 425.333 183.066 441.043 185.189 456.7C185.417 458.366 185.842 460.314 187.335 460.977C188.199 461.209 189.102 461.25 189.984 461.098C210.272 460.784 227.018 461.569 244.746 460.565C245.424 460.524 246.067 460.25 246.567 459.791C247.219 459.186 247.873 462.004 247.981 461.104C250.4 439.521 251.143 426.311 252.38 410.114C252.54 408.895 252.669 407.69 252.766 406.5C253.341 407.374 253.971 407.627 254.641 408.47L254.781 408.617C258.93 406.889 262.757 404.471 266.1 401.465C268.977 398.898 271.957 395.809 271.654 391.96Z" fill="#F2E2C8"/>
<path d="M158.432 390.64C162.097 399.71 169.926 405.938 178.212 410.656C178.625 410.877 179.108 410.929 179.559 410.801C180.01 410.674 180.394 410.376 180.631 409.972C180.868 409.567 180.938 409.086 180.828 408.631C180.718 408.175 180.436 407.78 180.04 407.528C172.68 403.338 165.205 397.787 161.926 389.677C161.786 389.222 161.478 388.838 161.063 388.602C160.649 388.367 160.161 388.299 159.698 388.413C159.237 388.543 158.845 388.85 158.608 389.267C158.371 389.684 158.308 390.177 158.432 390.64Z" fill="#4C9374"/>
<path d="M254.798 410.452C262.653 406.21 270.856 401.182 274.526 392.634C274.752 392.216 274.811 391.726 274.69 391.266C274.57 390.806 274.278 390.408 273.875 390.155C273.46 389.916 272.967 389.85 272.503 389.972C272.039 390.094 271.642 390.393 271.398 390.805C267.954 398.83 260.326 403.349 252.969 407.322C250.917 408.431 252.744 411.564 254.798 410.452V410.452Z" fill="#4C9374"/>
<path d="M202.569 353.571C201.941 357.827 209.994 361.164 214.85 361.557C220.269 361.994 226.277 359.584 228.519 354.33C228.746 353.912 228.805 353.423 228.685 352.962C228.564 352.502 228.273 352.104 227.87 351.851C227.454 351.612 226.961 351.546 226.497 351.667C226.033 351.789 225.635 352.089 225.391 352.501C224.591 354.193 223.314 355.613 221.717 356.588C220.12 357.562 218.272 358.048 216.403 357.984C214.146 357.977 211.91 357.557 209.804 356.745C208.744 356.358 206.417 355.32 206.051 353.57C205.862 352.674 206.051 351.942 205.143 351.408C204.97 351.289 204.773 351.21 204.566 351.177C204.358 351.144 204.146 351.158 203.945 351.219C203.744 351.279 203.559 351.384 203.405 351.526C203.25 351.667 203.128 351.842 203.05 352.036L202.569 353.571Z" fill="#4C9374"/>
<path d="M180.549 408.282C180.34 399.666 180.402 391.049 180.736 382.432C180.832 380.005 180.948 377.579 181.087 375.155C181.121 374.547 180.176 374.548 180.144 375.155C179.657 383.758 179.44 392.372 179.494 400.997C179.509 403.426 179.547 405.854 179.607 408.282C179.607 408.407 179.656 408.527 179.745 408.615C179.833 408.704 179.953 408.753 180.078 408.753C180.203 408.753 180.323 408.704 180.411 408.615C180.5 408.527 180.549 408.407 180.549 408.282V408.282Z" fill="#4C9374"/>
<path d="M181.517 371.356C181.984 368.399 182.716 365.49 183.704 362.665C183.905 362.09 182.994 361.843 182.793 362.415C181.804 365.24 181.072 368.148 180.606 371.104C180.512 371.698 181.423 371.954 181.517 371.356Z" fill="#4C9374"/>
<path d="M253.538 407.958C252.982 399.544 252.184 391.149 251.145 382.774C250.85 380.408 250.535 378.044 250.202 375.681C250.119 375.082 249.208 375.337 249.291 375.932C250.452 384.206 251.376 392.507 252.064 400.833C252.259 403.208 252.435 405.583 252.592 407.958C252.631 408.563 253.577 408.566 253.535 407.958H253.538Z" fill="#4C9374"/>
<path d="M249.646 370.009C249.362 366.864 248.625 363.776 247.458 360.842C247.235 360.283 246.32 360.528 246.546 361.092C247.69 363.945 248.416 366.949 248.702 370.009C248.757 370.609 249.703 370.616 249.645 370.009H249.646Z" fill="#4C9374"/>
<path d="M248.393 457.28H184.859V464.367H248.393V457.28Z" fill="#F2E2C8"/>
<path d="M222.85 402.318L209.047 402.498C207.338 402.52 205.97 403.924 205.992 405.633L206.476 442.844C206.498 444.553 207.902 445.921 209.611 445.898L223.414 445.719C225.124 445.697 226.491 444.293 226.469 442.584L225.985 405.373C225.963 403.664 224.56 402.296 222.85 402.318Z" fill="#4C9374"/>
<g opacity="0.52">
<path opacity="0.52" d="M218.387 410.057C218.157 410.387 217.835 410.641 217.461 410.788C217.087 410.934 216.678 410.966 216.285 410.88C215.893 410.794 215.535 410.594 215.256 410.305C214.977 410.015 214.791 409.649 214.72 409.254C214.65 408.858 214.698 408.451 214.859 408.083C215.019 407.715 215.286 407.402 215.624 407.186C215.963 406.969 216.358 406.857 216.759 406.865C217.161 406.873 217.551 407 217.881 407.229C218.323 407.537 218.625 408.008 218.72 408.538C218.814 409.069 218.695 409.615 218.387 410.057Z" fill="white"/>
<path opacity="0.54" d="M217.92 409.732C217.754 409.968 217.522 410.151 217.253 410.255C216.983 410.36 216.689 410.382 216.407 410.32C216.125 410.258 215.868 410.113 215.668 409.905C215.468 409.696 215.334 409.433 215.283 409.149C215.232 408.864 215.267 408.571 215.382 408.307C215.498 408.042 215.689 407.817 215.933 407.661C216.176 407.505 216.46 407.424 216.748 407.43C217.037 407.435 217.318 407.525 217.556 407.69C217.714 407.799 217.849 407.939 217.954 408.102C218.058 408.264 218.129 408.445 218.163 408.635C218.197 408.825 218.193 409.019 218.151 409.208C218.109 409.396 218.031 409.574 217.92 409.732V409.732Z" fill="#DEDFE0"/>
</g>
<path d="M279.226 410.208C283.913 423.953 271.685 433.819 260.373 436.409C250.426 438.818 240.289 440.366 230.076 441.037C227.92 441.194 224.805 441.859 223.38 440.182C221.955 438.506 223.73 437.585 224.08 435.518C224.212 434.732 225.535 433.771 229.199 432.745C242.822 428.933 252.839 423.183 265.739 416.004" fill="#F7B094"/>
<path d="M153.092 422.582C153.001 426.835 161.328 433.241 172.535 436.262C182.541 439 192.759 440.888 203.082 441.907C205.231 442.145 207.869 443.073 209.356 441.452C210.824 439.854 209.107 438.844 208.835 436.765C208.733 435.98 207.969 435.695 204.348 434.531C190.882 430.2 180.017 423.421 167.019 417.205L163.763 422.907L162.242 424.308L153.092 422.582Z" fill="#F7B094"/>
<path d="M235.515 439.186C234.896 439.423 233.844 438.775 232.779 438.055C233.303 437.603 233.801 437.123 234.273 436.618L234.377 433.318C232.597 432.525 230.775 431.83 228.919 431.237C228.414 431.039 227.933 430.851 227.474 430.673C227.292 430.596 227.108 430.516 226.927 430.44L226.91 430.453C224.699 429.595 222.8 428.869 220.052 427.782C219.525 427.523 218.941 427.4 218.354 427.424C218.055 427.432 217.767 427.537 217.533 427.722C217.298 427.908 217.13 428.164 217.053 428.453C216.948 429.015 217.839 429.71 218.41 430.112C219.606 430.963 220.445 431.486 221.644 432.33C222.993 433.273 223.623 433.901 223.163 434.559L223.15 434.548C222.374 435.491 210.352 435.13 209.393 435.466C208.847 435.658 208.423 435.78 208.643 436.418C209.083 437.687 212.257 437.075 213.74 437.395C215.502 437.816 217.29 438.121 219.092 438.31C219.295 438.328 219.485 438.327 219.496 438.369C219.294 438.488 219.068 438.558 218.835 438.575C214.517 438.97 210.18 439.12 205.845 439.026C205.722 439.024 205.6 439.058 205.496 439.124C205.391 439.189 205.308 439.283 205.255 439.395C205.202 439.507 205.183 439.631 205.2 439.753C205.216 439.876 205.267 439.991 205.347 440.085C206.582 441.164 208.133 441.816 209.768 441.943C212.571 442.351 215.408 442.469 218.234 442.295C214.316 443.381 209.374 442.985 209.452 443.998C209.887 444.538 210.518 444.885 211.207 444.963V444.963C213.407 445.331 215.646 445.396 217.864 445.158L216.943 445.448C216.549 445.527 216.2 445.752 215.964 446.077C215.915 446.145 215.884 446.225 215.874 446.309C215.864 446.393 215.877 446.478 215.91 446.556C215.942 446.633 215.995 446.701 216.062 446.753C216.128 446.804 216.208 446.838 216.291 446.85C218.253 447.346 228.244 446.239 232.812 442.493C233.356 441.987 233.861 441.441 234.325 440.861C234.858 440.414 235.268 439.837 235.515 439.186Z" fill="#F7B094"/>
<g opacity="0.55">
<path opacity="0.55" d="M216.015 446.325C216.585 446.325 219.072 446.254 219.884 446.121C220.917 446.017 221.932 445.771 222.897 445.389C223.631 445.103 223.945 444.616 223.915 444.132C223.875 443.439 222.902 443.26 222.45 443.073C224.141 442.998 225.741 442.285 226.929 441.078C227.23 440.695 227.388 440.22 227.378 439.733C227.378 438.852 225.843 438.418 224.974 438.267C223.883 438.092 222.78 437.997 221.675 437.983C222.568 437.625 223.427 437.188 224.242 436.679C224.852 436.272 225.342 436.036 225.499 435.497C225.593 435.306 225.638 435.095 225.631 434.882C225.624 434.669 225.565 434.461 225.458 434.277C225.341 434.1 225.184 433.953 225 433.847C224.817 433.741 224.611 433.679 224.399 433.666C223.493 433.576 224.156 433.666 223.3 433.584C223.391 433.751 223.428 433.943 223.406 434.132C223.384 434.322 223.305 434.5 223.179 434.643L221.711 435.009C221.009 435.856 212.69 435.637 210.145 435.62C209.966 436.189 209.081 435.193 209.36 435.741C209.497 436.001 209.66 436.248 209.845 436.478C210.787 436.863 211.762 437.162 212.758 437.372C214.52 437.792 216.308 438.098 218.11 438.286C218.313 438.305 219.581 438.388 219.593 438.431C219.606 438.473 217.84 438.654 217.598 438.676C215.523 438.863 213.752 438.866 211.722 438.943C212.294 439.977 212.641 441.12 212.74 442.297C214.235 442.361 215.751 442.352 217.253 442.272C215.781 442.645 214.28 442.894 212.767 443.016C212.767 443.755 212.696 444.493 212.693 445.228C214.092 445.268 215.491 445.237 216.886 445.136L215.966 445.426C215.598 445.538 215.823 446.325 216.015 446.325Z" fill="#E89C82"/>
</g>
<path d="M205.822 441.857C204.408 441.741 203.02 441.634 201.625 441.453C200.703 441.332 201.782 437.368 200.827 437.152C199.614 436.885 196.367 440.344 195.057 439.843C195.341 440.63 195.867 441.307 196.56 441.777C202.422 445.599 216.67 446.556 219.513 445.585" fill="#F7B094"/>
<path d="M196.194 433.98C198.614 432.79 201.195 432.206 203.646 431.102C205.609 432.635 204.206 433.284 206.17 434.819C206.991 435.209 207.783 435.657 208.539 436.16C208.966 437.105 209.264 438.103 209.426 439.127C208.701 441.59 209.297 442.005 210.437 443.997C205.045 443.616 199.995 441.214 196.298 437.27" fill="#F7B094"/>
<path d="M200.326 432.42C204.327 430.838 206.516 430.025 210.519 428.445C211.047 428.186 211.63 428.063 212.217 428.087C212.516 428.095 212.804 428.2 213.039 428.385C213.273 428.571 213.441 428.827 213.518 429.116C213.623 429.678 212.733 430.373 212.161 430.775C210.965 431.626 210.128 432.148 208.928 432.993C207.314 434.127 206.709 434.795 207.79 435.614" fill="#F7B094"/>
<path d="M210.291 442.185C214.235 444.248 221.212 443.459 221.119 444.661C220.684 445.202 220.053 445.548 219.364 445.626C213.069 446.44 203.314 442.102 196.427 440.198" fill="#F7B094"/>
<path d="M203.067 438.908L207.421 435.211C208.197 436.154 220.013 434.336 220.973 434.674C221.52 434.864 221.942 434.988 221.722 435.617C221.282 436.886 218.318 437.73 216.832 438.05C215.069 438.471 213.281 438.775 211.479 438.963C211.276 438.982 211.088 438.982 211.075 439.024C211.277 439.142 211.503 439.212 211.737 439.229C216.055 439.624 220.392 439.775 224.728 439.681C224.851 439.68 224.972 439.714 225.076 439.779C225.181 439.845 225.264 439.939 225.317 440.051C225.369 440.162 225.388 440.287 225.372 440.409C225.355 440.531 225.304 440.646 225.224 440.74C223.989 441.82 222.439 442.471 220.803 442.599C215.94 443.25 211.006 443.144 206.175 442.284L206.862 439.152C205.611 439.13 204.345 439.051 203.067 438.908Z" fill="#F7B094"/>
<path d="M214.275 447.513C212.315 448.011 202.323 446.902 197.754 443.158C196.729 442.22 195.855 441.129 195.165 439.923C196.21 440.46 199.138 438.297 200.12 438.627C200.888 438.885 199.727 442.173 200.48 442.352C201.619 442.624 202.752 442.831 203.913 443.049L213.623 446.115C214.017 446.194 214.367 446.418 214.604 446.743C214.652 446.812 214.682 446.891 214.691 446.975C214.7 447.058 214.687 447.142 214.654 447.219C214.621 447.297 214.569 447.364 214.503 447.415C214.437 447.467 214.358 447.5 214.275 447.513Z" fill="#F7B094"/>
<path d="M391 245.898C447.158 247.904 459.993 295.229 515.348 350.591C538.018 373.26 572.534 396.542 608.408 395.524C664.566 393.918 686.13 372.346 715.455 351.663C735.163 337.762 749.604 317.706 742.383 298.451C740.954 294.64 735.966 282.407 723.13 281.605C713.622 281.011 702.078 287.32 698.26 296.044C693.798 306.223 694.317 317.976 699.063 329.739C705.1 344.708 727.114 366.748 741.18 374.671C754.691 382.275 777.457 394.088 792.924 395.128C834.641 397.937 851.489 373.067 861.917 357.825C882.718 327.423 900.024 316.91 920.482 313.7C937.591 311.016 958.187 315.305 967.813 328.141" stroke="white" stroke-miterlimit="10" stroke-dasharray="5 5"/>
\</g>

</svg>
